<svg xmlns="http://www.w3.org/2000/svg"    viewBox="-86 -60 690 152">
  <symbol id="sickle" tranform="">
    <path
       style="stroke-linecap:butt;stroke-linejoin:miter;stroke-opacity:1"
       d="m -76.9517,-43.705355 c 0,0 22.36941,-10.832131 78.3749894,-10.947116 56.4802166,-0.11596 76.7884766,14.913462 76.7884766,14.913462 0,0 -27.01275,-4.32831 -55.3702,-4.600961 -36.207546,-0.348128 -67.745186,14.754808 -67.745186,14.754808 0,0 2.44906,7.071792 17.76922,30.9374998 C -8.8776506,29.792676 2.5338694,38.001371 2.5338694,38.001371 l -11.26442,15.54807 c 0,0 -20.8738794,-15.7514 -37.7596094,-40.774029 C -60.27528,-7.652453 -76.9517,-43.705355 -76.9517,-43.705355 Z"
       id="path472-6"
       sodipodi:nodetypes="cscscsccsc" />
  </symbol>
  <!-- Mint green -->
    <use xlink:href="#sickle" transform="translate(-1, -4) rotate(240 0 0)" fill="#99EDC3"/>
  <!-- Beige -->
    <use xlink:href="#sickle" transform="translate(-1, -4) rotate(120 0 0)" fill="#D3BDB0" />
    <!-- Teal -->
    <use xlink:href="#sickle" fill="#297373" transform="translate(-1, -4)"/>
  <text
     xml:space="preserve"
     style='font-family:"Roboto",Arial, Helvetica, Verdana, Tahoma,sans-serif;text-transform:uppercase;font-weight:bold;font-size:160'
     x="89.362587"
     y="69.894539"
     id="text392"><tspan
       sodipodi:role="line"
       id="tspan390"
       x="89.362587"
       y="69.894539"
       style='font-family:"Roboto",Arial, Helvetica, Verdana, Tahoma,sans-serif;text-transform:uppercase;font-weight:bold;font-size:160'>UK AI</tspan></text>
</svg>
